#!OML:ASF E:\pregnant2\Project 1\Capture day 1\Session 1\pregnant2.ASF
:FULLY-SPECIFIED
:DEGREES
1416
root 5.20845 16.6481 11.9622 -321.727 -13.0348 7.43729
lowerback -22.4751 0.226314 -8.72089
upperback -17.9358 1.47301 -2.4978
thorax -7.79389 1.43014 2.35034
lowerneck -16.6374 -5.85478 -7.41802
upperneck 37.2539 -8.01318 3.69344
head 16.7461 -3.90676 1.38735
rclavicle 3.44394e-014 -3.24019e-014
rhumerus -97.5703 30.864 -108.302
rradius 95.9302
rwrist -31.7476
rhand 17.9049 -12.5248
rfingers 7.12502
rthumb 42.5786 -36.918
lclavicle 3.44394e-014 -3.24019e-014
lhumerus -111.253 -34.9187 125.424
lradius 93.1605
lwrist 55.0473
lhand 29.2629 29.7517
lfingers 7.12502
lthumb 53.043 49.2168
rfemur -62.316 4.43522 -0.144573
rtibia 57.4114
rfoot -19.3921 7.17313
rtoes -9.68914
lfemur -58.8326 -7.98836 -27.7908
ltibia 36.199
lfoot -13.4818 4.78932
ltoes -17.5286
1417
root 5.24066 16.6468 11.9886 -321.841 -13.5395 7.36316
lowerback -22.3711 0.32414 -8.61809
upperback -17.9085 1.56505 -2.55768
thorax -7.81105 1.45821 2.24002
lowerneck -16.6653 -5.79629 -7.27908
upperneck 37.2598 -7.97299 3.68969
head 16.7433 -3.872 1.36891
rclavicle -1.59028e-015 1.25234e-014
rhumerus -97.5321 30.7805 -108.299
rradius 95.9494
rwrist -31.964
rhand 17.982 -12.4021
rfingers 7.12502
rthumb 42.6507 -36.7703
lclavicle -1.59028e-015 1.25234e-014
lhumerus -111.41 -35.0211 125.522
lradius 93.4043
lwrist 55.1379
lhand 28.6355 29.7894
lfingers 7.12502
lthumb 52.4761 49.6079
rfemur -62.7142 4.19996 -0.0916873
rtibia 58.0292
rfoot -18.6552 7.45835
rtoes -9.99568
lfemur -58.6518 -7.85989 -27.99
ltibia 36.2806
lfoot -13.5697 5.1274
ltoes -17.4518
1418
root 5.27047 16.6447 12.0149 -321.921 -14.0075 7.32177
lowerback -22.354 0.351702 -8.58942
upperback -17.8768 1.58775 -2.5627
thorax -7.78068 1.46082 2.22343
lowerneck -16.6575 -5.72799 -7.15014
upperneck 37.2363 -7.89862 3.64501
head 16.7114 -3.8314 1.34164
rclavicle -1.57785e-014 3.37934e-014
rhumerus -97.5162 30.8335 -108.33
rradius 95.9265
rwrist -32.201
rhand 18.2128 -12.5248
rfingers 7.12502
rthumb 42.8667 -36.8177
lclavicle -1.57785e-014 3.37934e-014
lhumerus -111.496 -34.9841 125.532
lradius 93.6811
lwrist 55.0811
lhand 28.1711 29.8334
lfingers 7.12502
lthumb 52.0554 49.9061
rfemur -63.1397 3.94301 -0.0492989
rtibia 58.6254
rfoot -18.0491 7.35768
rtoes -10.9427
lfemur -58.509 -7.74956 -28.2066
ltibia 36.3635
lfoot -13.6672 5.43534
ltoes -17.3646
1419
root 5.29799 16.6399 12.0402 -322.037 -14.4849 7.31207
lowerback -22.28 0.367742 -8.61904
upperback -17.8554 1.59781 -2.56783
thorax -7.79465 1.46477 2.23495
lowerneck -16.6391 -5.64353 -7.04616
upperneck 37.2398 -7.81175 3.6462
head 16.6948 -3.7829 1.34191
rclavicle 2.13445e-014 -3.8763e-015
rhumerus -97.6203 30.837 -108.384
rradius 95.9815
rwrist -32.3609
rhand 18.2131 -12.4372
rfingers 7.12502
rthumb 42.8669 -36.73
lclavicle 2.13445e-014 -3.8763e-015
lhumerus -111.61 -34.9278 125.595
lradius 93.8726
lwrist 55.0099
lhand 27.7202 29.9425
lfingers 7.12502
lthumb 51.6461 50.256
rfemur -63.5523 3.70276 -0.0186901
rtibia 59.1997
rfoot -17.6678 6.51492
rtoes -13.0779
lfemur -58.3556 -7.63535 -28.4562
ltibia 36.459
lfoot -13.7544 5.73897
ltoes -17.1984
1420
root 5.32386 16.6356 12.0669 -322.18 -14.9711 7.30643
lowerback -22.2521 0.435628 -8.61375
upperback -17.7788 1.67812 -2.65336
thorax -7.71897 1.49148 2.15249
lowerneck -16.6074 -5.62448 -7.00123
upperneck 37.1686 -7.85167 3.77429
head 16.6574 -3.77707 1.38322
rclavicle 2.27608e-014 -1.89839e-014
rhumerus -97.5438 30.7285 -108.391
rradius 95.911
rwrist -32.4909
rhand 18.0653 -12.3442
rfingers 7.12502
rthumb 42.7287 -36.6853
lclavicle 2.27608e-014 -1.89839e-014
lhumerus -111.774 -35.088 125.712
lradius 94.0451
lwrist 54.8689
lhand 27.4618 29.9606
lfingers 7.12502
lthumb 51.4112 50.4096
rfemur -63.9155 3.51938 0.00577311
rtibia 59.7688
rfoot -17.6876 5.33249
rtoes -16.1244
lfemur -58.1686 -7.51319 -28.7198
ltibia 36.5901
lfoot -13.8888 6.0609
ltoes -17.1747
1421
root 5.349 16.6295 12.0918 -322.3 -15.4497 7.30716
lowerback -22.1813 0.441263 -8.67247
upperback -17.7596 1.67973 -2.6458
thorax -7.73629 1.49526 2.19262
lowerneck -16.5411 -5.58362 -6.98065
upperneck 37.1317 -7.81948 3.81357
head 16.6199 -3.75879 1.40461
rclavicle 2.84262e-014 -1.22253e-014
rhumerus -97.6876 30.75 -108.479
rradius 95.9015
rwrist -32.6664
rhand 18.1266 -12.4749
rfingers 7.12502
rthumb 42.7861 -36.796
lclavicle 2.84262e-014 -1.22253e-014
lhumerus -111.949 -35.0545 125.894
lradius 94.2266
lwrist 54.8085
lhand 26.8408 29.9685
lfingers 7.12502
lthumb 50.8456 50.7357
rfemur -64.3045 3.36106 0.020783
rtibia 60.3104
rfoot -17.498 4.28561
rtoes -17.4803
lfemur -58.0313 -7.37664 -28.9946
ltibia 36.7366
lfoot -14.022 6.35386
ltoes -17.0192
1422
root 5.37007 16.6126 12.1027 -322.097 -15.8401 7.36844
lowerback -22.2534 0.382243 -8.82074
upperback -17.8141 1.62062 -2.67388
thorax -7.77336 1.47725 2.23482
lowerneck -16.5064 -5.58597 -6.96222
upperneck 37.0253 -7.86616 3.90448
head 16.5635 -3.76518 1.43225
rclavicle 4.59441e-014 -2.60408e-014
rhumerus -97.6532 30.7201 -108.471
rradius 95.8059
rwrist -32.9081
rhand 18.1064 -12.3183
rfingers 7.12502
rthumb 42.7672 -36.646
lclavicle 4.59441e-014 -2.60408e-014
lhumerus -112.079 -35.1711 126.003
lradius 94.4328
lwrist 54.8164
lhand 26.289 30.1089
lfingers 7.12502
lthumb 50.3419 51.1503
rfemur -65.091 3.06675 0.00472118
rtibia 60.8583
rfoot -17.4788 3.56543
rtoes -18.658
lfemur -58.3367 -7.22956 -29.3209
ltibia 36.9188
lfoot -14.125 6.45124
ltoes -17.0037
1423
root 5.39144 16.6045 12.1241 -322.126 -16.2888 7.39869
lowerback -22.2674 0.350355 -8.94395
upperback -17.7958 1.59239 -2.67364
thorax -7.75171 1.47076 2.30042
lowerneck -16.4326 -5.56709 -6.9743
upperneck 36.9249 -7.86948 3.98768
head 16.4988 -3.76017 1.47125
rclavicle -4.07757e-014 3.47873e-015
rhumerus -97.7039 30.7244 -108.49
rradius 95.757
rwrist -33.2324
rhand 18.1238 -12.2762
rfingers 7.12502
rthumb 42.7834 -36.5982
lclavicle -4.07757e-014 3.47873e-015
lhumerus -112.164 -35.1712 126.075
lradius 94.5544
lwrist 54.5075
lhand 26.0221 30.2531
lfingers 7.12502
lthumb 50.0979 51.4242
rfemur -65.5517 2.93419 -0.0115571
rtibia 61.3066
rfoot -17.6629 2.92307
rtoes -19.4545
lfemur -58.3218 -7.08783 -29.616
ltibia 37.0759
lfoot -14.2613 6.66847
ltoes -16.8628
1424
root 5.4133 16.5944 12.1426 -322.062 -16.7615 7.37958
lowerback -22.3346 0.368903 -9.00745
upperback -17.7909 1.62508 -2.71205
thorax -7.72023 1.4865 2.30006
lowerneck -16.3703 -5.61362 -7.01019
upperneck 36.8084 -7.97848 4.10827
head 16.4415 -3.79662 1.50934
rclavicle 2.31087e-014 -5.05907e-014
rhumerus -97.6802 30.6622 -108.473
rradius 95.6671
rwrist -33.6086
rhand 18.2633 -12.484
rfingers 7.12502
rthumb 42.9139 -36.7603
lclavicle 2.31087e-014 -5.05907e-014
lhumerus -112.371 -35.2415 126.271
lradius 94.711
lwrist 54.2936
lhand 25.449 30.1948
lfingers 7.12502
lthumb 49.5731 51.6388
rfemur -66.1165 2.84832 -0.0205229
rtibia 61.6827
rfoot -18.0128 2.2387
rtoes -19.812
lfemur -58.4221 -6.95705 -29.8397
ltibia 37.239
lfoot -14.3684 6.95011
ltoes -16.795
